<?xml version="1.0" standalone="no"?>
<!DOCTYPE svg PUBLIC "-//W3C//DTD SVG 20010904//EN"
 "http://www.w3.org/TR/2001/REC-SVG-20010904/DTD/svg10.dtd">
<svg version="1.0" xmlns="http://www.w3.org/2000/svg"
 width="1031.000000pt" height="1280.000000pt" viewBox="0 0 1031.000000 1280.000000"
 preserveAspectRatio="xMidYMid meet">
<metadata>
Created by potrace 1.15, written by Peter Selinger 2001-2017
</metadata>
<g transform="translate(0.000000,1280.000000) scale(0.100000,-0.100000)"
fill="#000000" stroke="none">
<path d="M5020 12010 l0 -790 120 0 120 0 0 790 0 790 -120 0 -120 0 0 -790z"/>
<path d="M1439 11316 l-87 -83 559 -559 559 -559 85 85 85 85 -558 557 -557
557 -86 -83z"/>
<path d="M8037 10842 l-557 -557 83 -83 c45 -45 85 -82 88 -82 3 0 256 251
562 558 l556 557 -82 83 c-45 45 -84 82 -87 82 -3 0 -256 -251 -563 -558z"/>
<path d="M4815 10420 c-467 -63 -1018 -300 -1366 -587 -209 -173 -453 -469
-621 -753 -251 -426 -377 -882 -378 -1365 0 -275 59 -586 158 -831 66 -161
386 -771 582 -1109 86 -148 191 -335 232 -415 126 -244 222 -546 250 -792 l11
-97 -29 -48 c-39 -65 -43 -76 -54 -155 -15 -106 -6 -140 62 -222 104 -126 128
-168 149 -258 23 -101 24 -186 4 -272 -19 -81 -70 -195 -123 -273 -190 -281
-189 -513 4 -894 35 -71 82 -228 94 -317 9 -68 8 -79 -21 -170 -29 -88 -31
-105 -26 -187 7 -126 36 -205 88 -240 39 -28 168 -65 224 -65 25 0 66 -36 285
-255 l256 -255 614 2 613 3 252 258 252 257 94 0 c85 0 98 3 132 25 20 14 37
28 37 31 0 35 64 334 79 366 38 86 91 245 111 331 37 163 21 318 -48 454 -43
84 -66 153 -107 326 -54 227 -49 274 65 587 112 311 135 493 84 678 -14 51
-41 121 -59 156 -29 51 -35 73 -36 127 -3 167 109 592 225 854 77 175 344 653
600 1074 185 305 196 326 240 458 128 388 186 824 157 1168 -23 268 -90 519
-209 790 -165 374 -377 659 -705 947 -291 255 -580 432 -864 529 -375 129
-942 189 -1308 139z"/>
<path d="M8730 7700 l0 -120 790 0 790 0 0 120 0 120 -790 0 -790 0 0 -120z"/>
<path d="M0 7690 l0 -120 790 0 790 0 0 120 0 120 -790 0 -790 0 0 -120z"/>
<path d="M8223 5758 l-81 -83 554 -560 555 -559 87 87 87 87 -555 555 c-305
305 -557 555 -560 555 -3 0 -42 -37 -87 -82z"/>
<path d="M1560 5165 l-555 -555 88 -87 87 -88 557 557 558 558 -85 85 c-46 47
-87 85 -90 85 -3 0 -255 -250 -560 -555z"/>
</g>
</svg>
